<?xml version="1.0" encoding="UTF-8"?><svg id="Layer_1" xmlns="http://www.w3.org/2000/svg" xmlns:xlink="http://www.w3.org/1999/xlink" viewBox="0 0 24.46 18.35"><defs><style>.cls-1{fill:none;}.cls-2{clip-path:url(#clippath);}.cls-3{fill:#fff;}.cls-4,.cls-5{fill:#333;}.cls-5{font-family:NewOrder-Bold, 'New Order';font-size:12px;font-weight:700;}.cls-6{letter-spacing:-.01em;}</style><clipPath id="clippath"><rect class="cls-1" x="12.13" y="2.35" width="10.24" height="14.46"/></clipPath></defs><path class="cls-4" d="m12.37,1.01v16.34H1V1.01h11.37M13.37.01H0v18.34h13.37V.01h0Z"/><text class="cls-5" transform="translate(2.84 13.86)"><tspan class="cls-6" x="0" y="0">S</tspan><tspan x="5.87" y="0">TE</tspan></text><rect class="cls-4" x="12.09" width="12.36" height="18.34"/><g class="cls-2"><path class="cls-4" d="m3.95,13.88v-1.87c.79.07,1.21.1,1.51.1.89,0,1.27-.23,1.27-.76,0-.34-.16-.61-.76-1.01l-.91-.61c-.89-.6-1.34-1.37-1.34-2.31,0-1.55,1.13-2.48,3.01-2.48.42,0,.86.05,1.36.12v1.77c-.49-.07-.95-.12-1.3-.12-.72,0-1.08.22-1.08.65,0,.3.17.54.66.86l.77.5c1.12.73,1.61,1.54,1.61,2.6,0,1.7-1.18,2.67-3.24,2.67-.34,0-.8-.02-1.56-.12Z"/><path class="cls-3" d="m11.23,6.9h-1.99v-1.85h5.97v1.85h-1.99v6.98h-1.99v-6.98Z"/><path class="cls-3" d="m16.26,5.05h5v1.85h-3.01v1.59h2.97v1.85h-2.97v1.69h3.06v1.85h-5.05V5.05Z"/></g></svg>